<?xml version="1.0" encoding="utf-8"?>
<!-- Generator: Adobe Illustrator 16.0.0, SVG Export Plug-In . SVG Version: 6.00 Build 0)  -->
<!DOCTYPE svg PUBLIC "-//W3C//DTD SVG 1.1//EN" "http://www.w3.org/Graphics/SVG/1.1/DTD/svg11.dtd">
<svg version="1.1" id="Capa_1" xmlns="http://www.w3.org/2000/svg" xmlns:xlink="http://www.w3.org/1999/xlink" x="0px" y="0px"
	 width="60px" height="60px" viewBox="0 0 60 60" enable-background="new 0 0 60 60" xml:space="preserve">
<path fill="#333333" d="M38.584,36.334c0.947-0.994,2.561-1.066,3.602-0.143c1.127,0.924,1.096,2.484,0.14,3.48
	c-2.327,2.451-6.364,5.07-12.068,5.07c-5.705,0-9.741-2.619-12.068-5.07c-0.956-0.996-0.893-2.557,0.138-3.48
	c1.042-0.924,2.656-0.852,3.602,0.143c1.615,1.685,4.376,3.481,8.329,3.481C34.208,39.815,36.971,38.019,38.584,36.334
	 M38.713,21.75c1.88,0,3.398,1.467,3.398,3.285c0,1.817-1.519,3.284-3.398,3.284c-1.871,0-3.399-1.467-3.399-3.284
	C35.313,23.217,36.842,21.75,38.713,21.75 M21.716,28.319c-1.87,0-3.399-1.467-3.399-3.284c0-1.818,1.53-3.285,3.399-3.285
	c1.88,0,3.399,1.467,3.399,3.285C25.115,26.853,23.596,28.319,21.716,28.319 M30.257,3.687c15.02,0,27.193,11.762,27.193,26.275
	c0,14.513-12.174,26.274-27.193,26.274c-15.021,0-27.195-11.762-27.195-26.274C3.062,15.449,15.236,3.687,30.257,3.687
	 M8.161,29.962c0,11.792,9.89,21.348,22.096,21.348c12.205,0,22.096-9.556,22.096-21.348c0-11.794-9.891-21.349-22.096-21.349
	C18.05,8.613,8.161,18.168,8.161,29.962"/>
</svg>
