<?xml version="1.0" encoding="utf-8"?>
<!-- Generator: Adobe Illustrator 16.0.0, SVG Export Plug-In . SVG Version: 6.00 Build 0)  -->
<!DOCTYPE svg PUBLIC "-//W3C//DTD SVG 1.1//EN" "http://www.w3.org/Graphics/SVG/1.1/DTD/svg11.dtd">
<svg version="1.1" id="Capa_1" xmlns="http://www.w3.org/2000/svg" xmlns:xlink="http://www.w3.org/1999/xlink" x="0px" y="0px"
	 width="60px" height="60px" viewBox="0 0 60 60" enable-background="new 0 0 60 60" xml:space="preserve">
<path fill="#333333" d="M38.392,28.285c-1.855,0-3.373-1.498-3.373-3.353c0-1.856,1.518-3.354,3.373-3.354
	c1.866,0,3.374,1.498,3.374,3.354C41.766,26.787,40.258,28.285,38.392,28.285 M21.523,21.578c1.866,0,3.374,1.498,3.374,3.354
	c0,1.855-1.507,3.353-3.374,3.353c-1.855,0-3.374-1.498-3.374-3.353C18.149,23.076,19.667,21.578,21.523,21.578 M37.592,37.506
	c1.401,0,2.529,1.121,2.529,2.516c0,1.394-1.128,2.515-2.529,2.515H22.409c-1.401,0-2.531-1.121-2.531-2.515
	c0-1.395,1.129-2.516,2.531-2.516H37.592z M30,3.136c14.909,0,26.991,12.008,26.991,26.826c0,14.816-12.082,26.825-26.991,26.825
	c-14.907,0-26.99-12.009-26.99-26.825C3.01,15.144,15.092,3.136,30,3.136 M51.929,29.962c0-12.041-9.814-21.796-21.929-21.796
	c-12.114,0-21.929,9.755-21.929,21.796c0,12.039,9.815,21.796,21.929,21.796C42.114,51.758,51.929,42.001,51.929,29.962"/>
</svg>
