<?xml version="1.0" encoding="utf-8"?>
<!-- Generator: Adobe Illustrator 16.0.0, SVG Export Plug-In . SVG Version: 6.00 Build 0)  -->
<!DOCTYPE svg PUBLIC "-//W3C//DTD SVG 1.1//EN" "http://www.w3.org/Graphics/SVG/1.1/DTD/svg11.dtd">
<svg version="1.1" id="Capa_1" xmlns="http://www.w3.org/2000/svg" xmlns:xlink="http://www.w3.org/1999/xlink" x="0px" y="0px"
	 width="60px" height="60px" viewBox="0 0 60 60" enable-background="new 0 0 60 60" xml:space="preserve">
<path fill="#333333" d="M41.554,45.51c-1.307,0.489-2.76-0.218-3.233-1.582c-0.97-2.79-4.235-5.244-8.576-5.244
	c-4.342,0-7.608,2.454-8.577,5.244c-0.474,1.364-1.928,2.071-3.234,1.582c-1.317-0.491-2.002-1.997-1.528-3.349
	c1.845-5.287,7.323-8.711,13.339-8.711c6.016,0,11.494,3.424,13.338,8.711C43.556,43.513,42.871,45.019,41.554,45.51 M38.131,21.239
	c1.864,0,3.37,1.559,3.37,3.49c0,1.93-1.506,3.489-3.37,3.489c-1.855,0-3.371-1.559-3.371-3.489
	C34.76,22.797,36.275,21.239,38.131,21.239 M21.272,28.217c-1.853,0-3.371-1.559-3.371-3.489c0-1.931,1.518-3.49,3.371-3.49
	c1.865,0,3.373,1.559,3.373,3.49C24.645,26.659,23.137,28.217,21.272,28.217 M29.744,2.05c14.896,0,26.971,12.495,26.971,27.912
	c0,15.416-12.074,27.911-26.971,27.911c-14.899,0-26.973-12.495-26.973-27.911C2.771,14.545,14.845,2.05,29.744,2.05 M7.829,29.962
	c0,12.526,9.809,22.678,21.916,22.678c12.104,0,21.914-10.151,21.914-22.678c0-12.528-9.81-22.678-21.914-22.678
	C17.637,7.284,7.829,17.434,7.829,29.962"/>
</svg>
